<?xml version="1.0" encoding="UTF-8" standalone="no"?>
<!DOCTYPE svg PUBLIC "-//W3C//DTD SVG 1.1//EN"
 "http://www.w3.org/Graphics/SVG/1.1/DTD/svg11.dtd">
<!-- Generated by graphviz version 12.1.1 (20240910.0053)
 -->
<!-- Title: INFRA Pages: 1 -->
<svg width="970pt" height="404pt"
 viewBox="0.00 0.00 969.56 404.00" xmlns="http://www.w3.org/2000/svg" xmlns:xlink="http://www.w3.org/1999/xlink">
<g id="graph0" class="graph" transform="scale(1 1) rotate(0) translate(4 400)">
<title>INFRA</title>
<polygon fill="white" stroke="none" points="-4,4 -4,-400 965.56,-400 965.56,4 -4,4"/>
<!-- AuroraServerlessV2Cluster -->
<g id="node1" class="node">
<title>AuroraServerlessV2Cluster</title>
<path fill="#ffcfb3" stroke="black" stroke-width="2" d="M233.34,-65.45C233.34,-69.07 191.74,-72 140.53,-72 89.32,-72 47.72,-69.07 47.72,-65.45 47.72,-65.45 47.72,-6.55 47.72,-6.55 47.72,-2.93 89.32,0 140.53,0 191.74,0 233.34,-2.93 233.34,-6.55 233.34,-6.55 233.34,-65.45 233.34,-65.45"/>
<path fill="none" stroke="black" stroke-width="2" d="M233.34,-65.45C233.34,-61.84 191.74,-58.91 140.53,-58.91 89.32,-58.91 47.72,-61.84 47.72,-65.45"/>
<text text-anchor="middle" x="140.53" y="-40.2" font-family="Arial" font-size="14.00">AuroraServerlessV2Cluster</text>
<text text-anchor="middle" x="140.53" y="-23.4" font-family="Arial" font-size="14.00">(AWS::RDS::DBCluster)</text>
</g>
<!-- BedrockUserSecret -->
<g id="node2" class="node">
<title>BedrockUserSecret</title>
<path fill="#fff5cd" stroke="black" stroke-width="2" d="M248.51,-173.45C248.51,-177.07 200.11,-180 140.53,-180 80.95,-180 32.56,-177.07 32.56,-173.45 32.56,-173.45 32.56,-114.55 32.56,-114.55 32.56,-110.93 80.95,-108 140.53,-108 200.11,-108 248.51,-110.93 248.51,-114.55 248.51,-114.55 248.51,-173.45 248.51,-173.45"/>
<path fill="none" stroke="black" stroke-width="2" d="M248.51,-173.45C248.51,-169.84 200.11,-166.91 140.53,-166.91 80.95,-166.91 32.56,-169.84 32.56,-173.45"/>
<text text-anchor="middle" x="140.53" y="-148.2" font-family="Arial" font-size="14.00">BedrockUserSecret</text>
<text text-anchor="middle" x="140.53" y="-131.4" font-family="Arial" font-size="14.00">(AWS::SecretsManager::Secret)</text>
</g>
<!-- BedrockUserSecret&#45;&gt;AuroraServerlessV2Cluster -->
<g id="edge1" class="edge">
<title>BedrockUserSecret&#45;&gt;AuroraServerlessV2Cluster</title>
<path fill="none" stroke="black" d="M140.53,-107.7C140.53,-99.93 140.53,-91.57 140.53,-83.43"/>
<polygon fill="black" stroke="black" points="144.03,-83.66 140.53,-73.66 137.03,-83.66 144.03,-83.66"/>
</g>
<!-- PgVectorInitFunction -->
<g id="node3" class="node">
<title>PgVectorInitFunction</title>
<path fill="#b7e0ff" stroke="black" stroke-width="2" d="M165.06,-288C165.06,-288 12,-288 12,-288 6,-288 0,-282 0,-276 0,-276 0,-228 0,-228 0,-222 6,-216 12,-216 12,-216 165.06,-216 165.06,-216 171.06,-216 177.06,-222 177.06,-228 177.06,-228 177.06,-276 177.06,-276 177.06,-282 171.06,-288 165.06,-288"/>
<text text-anchor="middle" x="88.53" y="-256.2" font-family="Arial" font-size="14.00">PgVectorInitFunction</text>
<text text-anchor="middle" x="88.53" y="-239.4" font-family="Arial" font-size="14.00">(AWS::Lambda::Function)</text>
</g>
<!-- PgVectorInitFunction&#45;&gt;AuroraServerlessV2Cluster -->
<g id="edge2" class="edge">
<title>PgVectorInitFunction&#45;&gt;AuroraServerlessV2Cluster</title>
<path fill="none" stroke="black" d="M46.82,-215.64C37.36,-205.23 28.62,-193.08 23.53,-180 11.94,-150.17 7.83,-135.89 23.53,-108 30.34,-95.91 40.12,-85.64 51.18,-76.99"/>
<polygon fill="black" stroke="black" points="53.01,-79.99 59.06,-71.29 48.91,-74.32 53.01,-79.99"/>
</g>
<!-- PgVectorInitFunction&#45;&gt;BedrockUserSecret -->
<g id="edge3" class="edge">
<title>PgVectorInitFunction&#45;&gt;BedrockUserSecret</title>
<path fill="none" stroke="black" d="M105.85,-215.7C109.84,-207.57 114.14,-198.8 118.3,-190.31"/>
<polygon fill="black" stroke="black" points="121.36,-192.02 122.62,-181.5 115.08,-188.94 121.36,-192.02"/>
</g>
<!-- KnowledgeBaseDataBucket -->
<g id="node4" class="node">
<title>KnowledgeBaseDataBucket</title>
<path fill="#fff5cd" stroke="black" stroke-width="2" d="M563.31,-65.45C563.31,-69.07 520.83,-72 468.53,-72 416.23,-72 373.75,-69.07 373.75,-65.45 373.75,-65.45 373.75,-6.55 373.75,-6.55 373.75,-2.93 416.23,0 468.53,0 520.83,0 563.31,-2.93 563.31,-6.55 563.31,-6.55 563.31,-65.45 563.31,-65.45"/>
<path fill="none" stroke="black" stroke-width="2" d="M563.31,-65.45C563.31,-61.84 520.83,-58.91 468.53,-58.91 416.23,-58.91 373.75,-61.84 373.75,-65.45"/>
<text text-anchor="middle" x="468.53" y="-40.2" font-family="Arial" font-size="14.00">KnowledgeBaseDataBucket</text>
<text text-anchor="middle" x="468.53" y="-23.4" font-family="Arial" font-size="14.00">(AWS::S3::Bucket)</text>
</g>
<!-- KnowledgeBase -->
<g id="node5" class="node">
<title>KnowledgeBase</title>
<path fill="#b7e0ff" stroke="black" stroke-width="2" d="M480.19,-180C480.19,-180 278.87,-180 278.87,-180 272.87,-180 266.87,-174 266.87,-168 266.87,-168 266.87,-120 266.87,-120 266.87,-114 272.87,-108 278.87,-108 278.87,-108 480.19,-108 480.19,-108 486.19,-108 492.19,-114 492.19,-120 492.19,-120 492.19,-168 492.19,-168 492.19,-174 486.19,-180 480.19,-180"/>
<text text-anchor="middle" x="379.53" y="-148.2" font-family="Arial" font-size="14.00">KnowledgeBase</text>
<text text-anchor="middle" x="379.53" y="-131.4" font-family="Arial" font-size="14.00">(AWS::Bedrock::KnowledgeBase)</text>
</g>
<!-- KnowledgeBase&#45;&gt;AuroraServerlessV2Cluster -->
<g id="edge5" class="edge">
<title>KnowledgeBase&#45;&gt;AuroraServerlessV2Cluster</title>
<path fill="none" stroke="black" d="M299.61,-107.56C276.21,-97.18 250.52,-85.78 226.74,-75.24"/>
<polygon fill="black" stroke="black" points="228.27,-72.08 217.71,-71.23 225.43,-78.48 228.27,-72.08"/>
</g>
<!-- KnowledgeBase&#45;&gt;KnowledgeBaseDataBucket -->
<g id="edge4" class="edge">
<title>KnowledgeBase&#45;&gt;KnowledgeBaseDataBucket</title>
<path fill="none" stroke="black" d="M409.17,-107.7C416.37,-99.12 424.17,-89.84 431.66,-80.91"/>
<polygon fill="black" stroke="black" points="434.3,-83.21 438.05,-73.3 428.94,-78.71 434.3,-83.21"/>
</g>
<!-- KnowledgeBaseDataSource -->
<g id="node6" class="node">
<title>KnowledgeBaseDataSource</title>
<path fill="#b7e0ff" stroke="black" stroke-width="2" d="M663.56,-288C663.56,-288 489.5,-288 489.5,-288 483.5,-288 477.5,-282 477.5,-276 477.5,-276 477.5,-228 477.5,-228 477.5,-222 483.5,-216 489.5,-216 489.5,-216 663.56,-216 663.56,-216 669.56,-216 675.56,-222 675.56,-228 675.56,-228 675.56,-276 675.56,-276 675.56,-282 669.56,-288 663.56,-288"/>
<text text-anchor="middle" x="576.53" y="-256.2" font-family="Arial" font-size="14.00">KnowledgeBaseDataSource</text>
<text text-anchor="middle" x="576.53" y="-239.4" font-family="Arial" font-size="14.00">(AWS::Bedrock::DataSource)</text>
</g>
<!-- KnowledgeBaseDataSource&#45;&gt;KnowledgeBaseDataBucket -->
<g id="edge7" class="edge">
<title>KnowledgeBaseDataSource&#45;&gt;KnowledgeBaseDataBucket</title>
<path fill="none" stroke="black" d="M558.7,-215.66C540.33,-179.26 511.63,-122.39 491.55,-82.62"/>
<polygon fill="black" stroke="black" points="494.7,-81.09 487.07,-73.74 488.45,-84.25 494.7,-81.09"/>
</g>
<!-- KnowledgeBaseDataSource&#45;&gt;KnowledgeBase -->
<g id="edge6" class="edge">
<title>KnowledgeBaseDataSource&#45;&gt;KnowledgeBase</title>
<path fill="none" stroke="black" d="M510.66,-215.56C492.92,-206.01 473.58,-195.61 455.34,-185.79"/>
<polygon fill="black" stroke="black" points="457.14,-182.78 446.67,-181.13 453.82,-188.95 457.14,-182.78"/>
</g>
<!-- SyncKnowledgeBaseFunction -->
<g id="node7" class="node">
<title>SyncKnowledgeBaseFunction</title>
<path fill="#b7e0ff" stroke="black" stroke-width="2" d="M569.53,-396C569.53,-396 391.53,-396 391.53,-396 385.53,-396 379.53,-390 379.53,-384 379.53,-384 379.53,-336 379.53,-336 379.53,-330 385.53,-324 391.53,-324 391.53,-324 569.53,-324 569.53,-324 575.53,-324 581.53,-330 581.53,-336 581.53,-336 581.53,-384 581.53,-384 581.53,-390 575.53,-396 569.53,-396"/>
<text text-anchor="middle" x="480.53" y="-364.2" font-family="Arial" font-size="14.00">SyncKnowledgeBaseFunction</text>
<text text-anchor="middle" x="480.53" y="-347.4" font-family="Arial" font-size="14.00">(AWS::Lambda::Function)</text>
</g>
<!-- SyncKnowledgeBaseFunction&#45;&gt;KnowledgeBase -->
<g id="edge8" class="edge">
<title>SyncKnowledgeBaseFunction&#45;&gt;KnowledgeBase</title>
<path fill="none" stroke="black" d="M379.06,-353.8C332.67,-345.72 281.65,-327.57 252.53,-288 233.56,-262.23 236.34,-243.6 252.53,-216 259.17,-204.68 268.35,-195.03 278.75,-186.84"/>
<polygon fill="black" stroke="black" points="280.5,-189.9 286.53,-181.19 276.39,-184.23 280.5,-189.9"/>
</g>
<!-- SyncKnowledgeBaseFunction&#45;&gt;KnowledgeBaseDataSource -->
<g id="edge9" class="edge">
<title>SyncKnowledgeBaseFunction&#45;&gt;KnowledgeBaseDataSource</title>
<path fill="none" stroke="black" d="M512.5,-323.7C520.35,-315.03 528.85,-305.65 537.01,-296.63"/>
<polygon fill="black" stroke="black" points="539.57,-299.03 543.69,-289.26 534.38,-294.33 539.57,-299.03"/>
</g>
<!-- WebsiteBucket -->
<g id="node8" class="node">
<title>WebsiteBucket</title>
<path fill="#fff5cd" stroke="black" stroke-width="2" d="M921.88,-281.45C921.88,-285.07 892.14,-288 855.53,-288 818.92,-288 789.18,-285.07 789.18,-281.45 789.18,-281.45 789.18,-222.55 789.18,-222.55 789.18,-218.93 818.92,-216 855.53,-216 892.14,-216 921.88,-218.93 921.88,-222.55 921.88,-222.55 921.88,-281.45 921.88,-281.45"/>
<path fill="none" stroke="black" stroke-width="2" d="M921.88,-281.45C921.88,-277.84 892.14,-274.91 855.53,-274.91 818.92,-274.91 789.18,-277.84 789.18,-281.45"/>
<text text-anchor="middle" x="855.53" y="-256.2" font-family="Arial" font-size="14.00">WebsiteBucket</text>
<text text-anchor="middle" x="855.53" y="-239.4" font-family="Arial" font-size="14.00">(AWS::S3::Bucket)</text>
</g>
<!-- Distribution -->
<g id="node9" class="node">
<title>Distribution</title>
<path fill="#e78f81" stroke="black" stroke-width="2" d="M949.56,-396C949.56,-396 761.5,-396 761.5,-396 755.5,-396 749.5,-390 749.5,-384 749.5,-384 749.5,-336 749.5,-336 749.5,-330 755.5,-324 761.5,-324 761.5,-324 949.56,-324 949.56,-324 955.56,-324 961.56,-330 961.56,-336 961.56,-336 961.56,-384 961.56,-384 961.56,-390 955.56,-396 949.56,-396"/>
<text text-anchor="middle" x="855.53" y="-364.2" font-family="Arial" font-size="14.00">Distribution</text>
<text text-anchor="middle" x="855.53" y="-347.4" font-family="Arial" font-size="14.00">(AWS::CloudFront::Distribution)</text>
</g>
<!-- Distribution&#45;&gt;WebsiteBucket -->
<g id="edge10" class="edge">
<title>Distribution&#45;&gt;WebsiteBucket</title>
<path fill="none" stroke="black" d="M855.53,-323.7C855.53,-315.93 855.53,-307.57 855.53,-299.43"/>
<polygon fill="black" stroke="black" points="859.03,-299.66 855.53,-289.66 852.03,-299.66 859.03,-299.66"/>
</g>
<!-- RestAPI -->
<g id="node10" class="node">
<title>RestAPI</title>
<path fill="#e78f81" stroke="black" stroke-width="2" d="M447.17,-288C447.17,-288 273.89,-288 273.89,-288 267.89,-288 261.89,-282 261.89,-276 261.89,-276 261.89,-228 261.89,-228 261.89,-222 267.89,-216 273.89,-216 273.89,-216 447.17,-216 447.17,-216 453.17,-216 459.17,-222 459.17,-228 459.17,-228 459.17,-276 459.17,-276 459.17,-282 453.17,-288 447.17,-288"/>
<text text-anchor="middle" x="360.53" y="-256.2" font-family="Arial" font-size="14.00">RestAPI</text>
<text text-anchor="middle" x="360.53" y="-239.4" font-family="Arial" font-size="14.00">(AWS::ApiGateway::RestApi)</text>
</g>
<!-- RestAPI&#45;&gt;KnowledgeBase -->
<g id="edge11" class="edge">
<title>RestAPI&#45;&gt;KnowledgeBase</title>
<path fill="none" stroke="black" d="M366.86,-215.7C368.25,-207.93 369.75,-199.57 371.21,-191.43"/>
<polygon fill="black" stroke="black" points="374.65,-192.09 372.96,-181.63 367.76,-190.86 374.65,-192.09"/>
</g>
</g>
</svg>
